<svg xmlns="http://www.w3.org/2000/svg" width="512" height="512" viewBox="0 0 512 512">
  <defs>
    <linearGradient id="bg" x1="0%" y1="0%" x2="100%" y2="100%">
      <stop offset="0%" style="stop-color:#eff6ff"/>
      <stop offset="100%" style="stop-color:#e0e7ff"/>
    </linearGradient>
  </defs>
  <rect width="512" height="512" rx="96" fill="url(#bg)" stroke="#c7d2fe" stroke-width="4"/>
  <rect x="80" y="80" width="352" height="40" rx="8" fill="#3b82f6"/>
  <text x="256" y="106" text-anchor="middle" font-family="Arial,sans-serif" font-size="22" font-weight="bold" fill="white">KANBAN</text>
  <rect x="90" y="140" width="100" height="290" rx="10" fill="white" stroke="#e5e7eb" stroke-width="3"/>
  <circle cx="112" cy="170" r="8" fill="#9ca3af"/>
  <text x="125" y="175" font-family="Arial,sans-serif" font-size="12" font-weight="bold" fill="#6b7280">Pendiente</text>
  <rect x="100" y="195" width="80" height="35" rx="6" fill="#f3f4f6" stroke="#e5e7eb" stroke-width="1.5"/>
  <rect x="100" y="245" width="80" height="35" rx="6" fill="#f3f4f6" stroke="#e5e7eb" stroke-width="1.5"/>
  <rect x="100" y="295" width="80" height="35" rx="6" fill="#f3f4f6" stroke="#e5e7eb" stroke-width="1.5"/>
  <rect x="206" y="140" width="100" height="290" rx="10" fill="white" stroke="#e5e7eb" stroke-width="3"/>
  <circle cx="228" cy="170" r="8" fill="#fbbf24"/>
  <text x="241" y="175" font-family="Arial,sans-serif" font-size="12" font-weight="bold" fill="#b45309">Progreso</text>
  <rect x="216" y="195" width="80" height="35" rx="6" fill="#fefce8" stroke="#fde68a" stroke-width="1.5"/>
  <rect x="216" y="245" width="80" height="35" rx="6" fill="#fefce8" stroke="#fde68a" stroke-width="1.5"/>
  <rect x="322" y="140" width="100" height="290" rx="10" fill="white" stroke="#e5e7eb" stroke-width="3"/>
  <circle cx="344" cy="170" r="8" fill="#34d399"/>
  <text x="357" y="175" font-family="Arial,sans-serif" font-size="12" font-weight="bold" fill="#047857">Hecho</text>
  <rect x="332" y="195" width="80" height="35" rx="6" fill="#ecfdf5" stroke="#a7f3d0" stroke-width="1.5"/>
  <rect x="332" y="245" width="80" height="35" rx="6" fill="#ecfdf5" stroke="#a7f3d0" stroke-width="1.5"/>
  <circle cx="440" cy="440" r="32" fill="#3b82f6" opacity="0.9"/>
  <line x1="428" y1="440" x2="452" y2="440" stroke="white" stroke-width="5" stroke-linecap="round"/>
  <line x1="440" y1="428" x2="440" y2="452" stroke="white" stroke-width="5" stroke-linecap="round"/>
</svg>
