<svg xmlns="http://www.w3.org/2000/svg" width="2048" height="2732" viewBox="0 0 2048 2732">
  <defs>
    <linearGradient id="bgGrad" x1="0%" y1="0%" x2="0%" y2="100%">
      <stop offset="0%" style="stop-color:#eff6ff"/>
      <stop offset="100%" style="stop-color:#dbeafe"/>
    </linearGradient>
    <linearGradient id="headerGrad" x1="0%" y1="0%" x2="100%" y2="0%">
      <stop offset="0%" style="stop-color:#3b82f6"/>
      <stop offset="100%" style="stop-color:#2563eb"/>
    </linearGradient>
  </defs>
  <rect width="2048" height="2732" fill="url(#bgGrad)"/>
  <circle cx="200" cy="400" r="300" fill="#3b82f6" opacity="0.03"/>
  <circle cx="1800" cy="2200" r="400" fill="#3b82f6" opacity="0.04"/>
  <circle cx="1024" cy="300" r="500" fill="#3b82f6" opacity="0.02"/>
  <rect x="574" y="600" width="900" height="80" rx="16" fill="url(#headerGrad)" opacity="0.95"/>
  <text x="1024" y="656" text-anchor="middle" font-family="Helvetica,Arial,sans-serif" font-size="44" font-weight="bold" fill="white" letter-spacing="4">TABLERO KANBAN</text>
  <g transform="translate(300, 800)">
    <rect x="0" y="0" width="380" height="1100" rx="16" fill="white" stroke="#e5e7eb" stroke-width="3"/>
    <circle cx="40" cy="50" r="16" fill="#9ca3af"/>
    <text x="65" y="57" font-family="Helvetica,Arial,sans-serif" font-size="24" font-weight="bold" fill="#6b7280">Pendiente</text>
    <rect x="20" y="90" width="340" height="80" rx="8" fill="#f9fafb" stroke="#e5e7eb" stroke-width="2"/>
    <rect x="20" y="190" width="340" height="80" rx="8" fill="#f9fafb" stroke="#e5e7eb" stroke-width="2"/>
    <rect x="20" y="290" width="340" height="80" rx="8" fill="#f9fafb" stroke="#e5e7eb" stroke-width="2"/>
    <rect x="40" y="110" width="200" height="10" rx="4" fill="#e5e7eb"/>
    <rect x="40" y="130" width="140" height="8" rx="4" fill="#f3f4f6"/>
    <rect x="40" y="210" width="220" height="10" rx="4" fill="#e5e7eb"/>
    <rect x="40" y="230" width="120" height="8" rx="4" fill="#f3f4f6"/>
    <rect x="40" y="310" width="180" height="10" rx="4" fill="#e5e7eb"/>
    <rect x="40" y="330" width="160" height="8" rx="4" fill="#f3f4f6"/>
    <circle cx="60" cy="150" r="6" fill="#3b82f6"/>
    <circle cx="60" cy="250" r="6" fill="#f59e0b"/>
    <circle cx="60" cy="350" r="6" fill="#3b82f6"/>
  </g>
  <g transform="translate(834, 800)">
    <rect x="0" y="0" width="380" height="1100" rx="16" fill="white" stroke="#e5e7eb" stroke-width="3"/>
    <circle cx="40" cy="50" r="16" fill="#fbbf24"/>
    <text x="65" y="57" font-family="Helvetica,Arial,sans-serif" font-size="24" font-weight="bold" fill="#b45309">Progreso</text>
    <rect x="20" y="90" width="340" height="80" rx="8" fill="#fefce8" stroke="#fde68a" stroke-width="2"/>
    <rect x="20" y="190" width="340" height="80" rx="8" fill="#fefce8" stroke="#fde68a" stroke-width="2"/>
    <rect x="40" y="110" width="200" height="10" rx="4" fill="#fde68a"/>
    <rect x="40" y="130" width="140" height="8" rx="4" fill="#fef9c3"/>
    <rect x="40" y="210" width="220" height="10" rx="4" fill="#fde68a"/>
    <rect x="40" y="230" width="120" height="8" rx="4" fill="#fef9c3"/>
    <circle cx="60" cy="150" r="6" fill="#ef4444"/>
    <circle cx="60" cy="250" r="6" fill="#3b82f6"/>
  </g>
  <g transform="translate(1368, 800)">
    <rect x="0" y="0" width="380" height="1100" rx="16" fill="white" stroke="#e5e7eb" stroke-width="3"/>
    <circle cx="40" cy="50" r="16" fill="#34d399"/>
    <text x="65" y="57" font-family="Helvetica,Arial,sans-serif" font-size="24" font-weight="bold" fill="#047857">Hecho</text>
    <rect x="20" y="90" width="340" height="80" rx="8" fill="#ecfdf5" stroke="#a7f3d0" stroke-width="2"/>
    <rect x="20" y="190" width="340" height="80" rx="8" fill="#ecfdf5" stroke="#a7f3d0" stroke-width="2"/>
    <rect x="40" y="110" width="200" height="10" rx="4" fill="#a7f3d0"/>
    <rect x="40" y="130" width="140" height="8" rx="4" fill="#d1fae5"/>
    <rect x="40" y="210" width="220" height="10" rx="4" fill="#a7f3d0"/>
    <circle cx="330" cy="130" r="12" fill="#10b981"/>
    <polyline points="323,130 327,135 337,125" fill="none" stroke="white" stroke-width="2.5" stroke-linecap="round" stroke-linejoin="round"/>
    <circle cx="330" cy="230" r="12" fill="#10b981"/>
    <polyline points="323,230 327,235 337,225" fill="none" stroke="white" stroke-width="2.5" stroke-linecap="round" stroke-linejoin="round"/>
  </g>
  <rect x="574" y="2050" width="900" height="2" rx="1" fill="#bfdbfe"/>
  <rect x="924" y="2120" width="200" height="200" rx="40" fill="url(#headerGrad)" opacity="0.9"/>
  <text x="1024" y="2244" text-anchor="middle" font-family="Helvetica,Arial,sans-serif" font-size="80" fill="white">📋</text>
  <text x="1024" y="2430" text-anchor="middle" font-family="Helvetica,Arial,sans-serif" font-size="30" font-weight="bold" fill="#3b82f6" letter-spacing="2">ORGANIZA TUS TAREAS</text>
  <text x="1024" y="2480" text-anchor="middle" font-family="Helvetica,Arial,sans-serif" font-size="20" fill="#94a3b8">De manera eficiente con un tablero Kanban</text>
  <rect x="924" y="2560" width="200" height="4" rx="2" fill="#e5e7eb"/>
  <rect x="924" y="2560" width="60" height="4" rx="2" fill="#3b82f6"/>
</svg>
